HIERARCHY
ROOT Hips
{
    OFFSET 0.000000 0.000000 0.000000
    CHANNELS 6 Xposition Yposition Zposition Zrotation Xrotation Yrotation
    JOINT Spine
    {
        OFFSET -0.000000 7.236184 0.000000
        CHANNELS 3 Zrotation Xrotation Yrotation
        JOINT Spine1
        {
            OFFSET -0.000000 20.420147 0.000000
            CHANNELS 3 Zrotation Xrotation Yrotation
            JOINT Neck
            {
                OFFSET -0.000000 20.336288 1.848754
                CHANNELS 3 Zrotation Xrotation Yrotation
                JOINT Head
                {
                    OFFSET -0.000000 12.354461 -1.764923
                    CHANNELS 3 Zrotation Xrotation Yrotation
                    End Site
                    {
                        OFFSET -0.000000 22.061537 0.000000
                    }
                }
            }
            JOINT LeftShoulder
            {
                OFFSET 3.573296 18.396038 -0.314103
                CHANNELS 3 Zrotation Xrotation Yrotation
                JOINT LeftArm
                {
                    OFFSET 10.880760 0.000000 0.000000
                    CHANNELS 3 Zrotation Xrotation Yrotation
                    JOINT LeftForeArm
                    {
                        OFFSET 27.185530 0.000000 0.000000
                        CHANNELS 3 Zrotation Xrotation Yrotation
                        JOINT LeftHand
                        {
                            OFFSET 27.825975 0.000000 0.000000
                            CHANNELS 3 Zrotation Xrotation Yrotation
                            End Site
                            {
                                OFFSET 13.236923 0.000000 0.000000
                            }
                        }
                    }
                }
            }
            JOINT RightShoulder
            {
                OFFSET -3.474926 18.396038 -0.314103
                CHANNELS 3 Zrotation Xrotation Yrotation
                JOINT RightArm
                {
                    OFFSET -10.880760 0.000000 0.000000
                    CHANNELS 3 Zrotation Xrotation Yrotation
                    JOINT RightForeArm
                    {
                        OFFSET -27.185530 0.000000 0.000000
                        CHANNELS 3 Zrotation Xrotation Yrotation
                        JOINT RightHand
                        {
                            OFFSET -27.825975 0.000000 0.000000
                            CHANNELS 3 Zrotation Xrotation Yrotation
                            End Site
                            {
                                OFFSET -13.236923 0.000000 0.000000
                            }
                        }
                    }
                }
            }
        }
    }
    JOINT LeftUpLeg
    {
        OFFSET 8.824615 0.000000 0.000000
        CHANNELS 3 Zrotation Xrotation Yrotation
        JOINT LeftLeg
        {
            OFFSET -0.000000 -35.111282 0.000000
            CHANNELS 3 Zrotation Xrotation Yrotation
            JOINT LeftFoot
            {
                OFFSET -0.000000 -42.324711 0.000000
                CHANNELS 3 Zrotation Xrotation Yrotation
                JOINT LeftToeBase
                {
                    OFFSET -0.000000 -5.735999 13.236923
                    CHANNELS 3 Zrotation Xrotation Yrotation
                    End Site
                    {
                        OFFSET -0.000000 0.000000 3.529846
                    }
                }
            }
        }
    }
    JOINT RightUpLeg
    {
        OFFSET -8.824615 0.000000 0.000000
        CHANNELS 3 Zrotation Xrotation Yrotation
        JOINT RightLeg
        {
            OFFSET -0.000000 -35.111282 0.000000
            CHANNELS 3 Zrotation Xrotation Yrotation
            JOINT RightFoot
            {
                OFFSET -0.000000 -42.324711 0.000000
                CHANNELS 3 Zrotation Xrotation Yrotation
                JOINT RightToeBase
                {
                    OFFSET -0.000000 -5.735999 13.236923
                    CHANNELS 3 Zrotation Xrotation Yrotation
                    End Site
                    {
                        OFFSET -0.000000 0.000000 3.529846
                    }
                }
            }
        }
    }
}
MOTION
Frames:    14
Frame Time:    0.008333
7.592379    80.458725    108.142326    -0.032424    -11.915722    -171.797394    -1.838953    -10.592356    0.693204    1.585532    3.939824    0.809194    2.315094    5.697901    -4.263108    2.712016    -12.736489    -3.981799    -0.403013    16.187910    0.528161    -55.120312    32.649265    -32.469894    2.815588    -6.931485    -13.713868    20.955219    -6.419236    0.957590    5.842567    17.894855    -5.988173    42.136097    42.563751    35.814621    -2.881211    -8.504487    22.689051    -15.250348    -7.367961    -4.251182    10.657901    -22.533144    0.562872    1.076050    22.328791    -0.190279    -11.446120    -9.528123    -13.621184    -0.722717    -0.087378    0.801231    -17.073841    -7.301417    -7.211917    2.707812    6.055494    -3.129978    12.649110    -5.388313    -10.091298    -0.354792    0.828431    0.383302    
7.528411    80.417297    108.175766    0.127988    -11.956225    -171.727570    -1.776465    -10.475706    0.747110    1.675138    3.871569    0.853410    2.315236    5.562713    -4.322050    2.720814    -12.751856    -4.043410    -0.425187    16.191790    0.531088    -55.287018    32.256374    -32.242130    2.853706    -6.927625    -13.584876    21.174534    -6.419391    0.918752    5.819537    17.861923    -5.983665    42.178215    42.446396    35.648983    -2.929449    -8.588689    22.867771    -15.284227    -7.436565    -4.252937    10.692780    -23.026003    0.470057    1.173570    23.036562    -0.133610    -11.437663    -9.781037    -13.708005    -0.720136    -0.092338    0.798377    -17.023329    -7.513442    -7.313900    2.734994    6.347752    -3.016917    12.703935    -5.486427    -10.119636    -0.349409    0.823835    0.377489
7.457549    80.371254    108.211540    0.300705    -11.993440    -171.658264    -1.711739    -10.352427    0.802785    1.782874    3.805649    0.898650    2.323534    5.417528    -4.380310    2.720821    -12.771117    -4.107460    -0.447727    16.199800    0.531403    -55.448570    31.853552    -32.026627    2.890698    -6.908990    -13.440504    21.407654    -6.405681    0.878467    5.801786    17.826227    -5.982478    42.224277    42.313786    35.459568    -2.986461    -8.671632    23.058138    -15.313746    -7.502841    -4.247411    10.731997    -23.539013    0.374181    1.276479    23.782495    -0.079406    -11.412935    -10.044502    -13.794747    -0.723282    -0.110248    0.801891    -16.970297    -7.736709    -7.417708    2.765327    6.661219    -2.897302    12.763911    -5.588098    -10.147499    -0.343903    0.817191    0.371544
7.379081    80.320587    108.249786    0.485447    -12.027848    -171.589752    -1.645134    -10.222440    0.859466    1.908604    3.741773    0.944356    2.341737    5.261408    -4.436925    2.711464    -12.795295    -4.173301    -0.469349    16.211531    0.528720    -55.603947    31.440310    -31.822990    2.926216    -6.874013    -13.280012    21.658287    -6.376604    0.836647    5.790011    17.788359    -5.984616    42.274136    42.163769    35.245689    -3.052715    -8.753011    23.260471    -15.338436    -7.566360    -4.233901    10.774449    -24.071341    0.274963    1.384988    24.564352    -0.027643    -11.371658    -10.317421    -13.880427    -0.731657    -0.141400    0.811221    -16.916025    -7.972274    -7.525321    2.798658    6.997026    -2.770041    12.830030    -5.692769    -10.174227    -0.339064    0.807666    0.366321
7.292537    80.265221    108.290207    0.683300    -12.057539    -171.522049    -1.575314    -10.083971    0.916508    2.051984    3.680058    0.989621    2.371829    5.094078    -4.490769    2.692213    -12.826671    -4.240074    -0.487817    16.226366    0.522826    -55.752312    31.016291    -31.631145    2.959560    -6.820967    -13.102407    21.930769    -6.330493    0.793579    5.784376    17.748993    -5.989819    42.327900    41.994152    35.007309    -3.128031    -8.832624    23.474583    -15.358384    -7.627043    -4.211412    10.821348    -24.619247    0.173440    1.499071    25.379066    0.019893    -11.314010    -10.599285    -13.963573    -0.744258    -0.184692    0.825257    -16.859476    -8.218151    -7.637033    2.834764    7.354995    -2.634921    12.903032    -5.799574    -10.199169    -0.334956    0.794731    0.361889
7.196915    80.205170    108.333076    0.893626    -12.083835    -171.455368    -1.503245    -9.937662    0.972980    2.212897    3.620507    1.033770    2.415155    4.914985    -4.540833    2.663563    -12.867799    -4.306799    -0.501143    16.243557    0.512968    -55.892868    30.579014    -31.450310    2.989841    -6.747535    -12.906150    22.230391    -6.265232    0.749213    5.784851    17.708767    -5.997403    42.386478    41.801277    34.743603    -3.211946    -8.910042    23.700417    -15.374059    -7.684614    -4.179106    10.870790    -25.182898    0.069628    1.619312    26.224543    0.063092    -11.241320    -10.889415    -14.043452    -0.760266    -0.238679    0.843089    -16.802778    -8.476080    -7.755274    2.873552    7.736418    -2.490672    12.984142    -5.907646    -10.221452    -0.331970    0.777380    0.358671
7.092248    80.141029    108.377968    1.114663    -12.106132    -171.390350    -1.429534    -9.784040    1.027567    2.389675    3.563754    1.075572    2.473160    4.725214    -4.585523    2.625406    -12.921468    -4.371998    -0.506903    16.261084    0.497867    -56.023621    30.131037    -31.279753    3.016271    -6.652542    -12.692001    22.559620    -6.179534    0.704310    5.791086    17.668163    -6.006622    42.450687    41.583717    34.455982    -3.303003    -8.984212    23.935322    -15.386144    -7.738386    -4.136021    10.921758    -25.754984    -0.034410    1.745367    27.089911    0.100492    -11.155848    -11.184547    -14.119017    -0.778505    -0.300874    0.863412    -16.746967    -8.743319    -7.880222    2.914146    8.137871    -2.338531    13.073951    -6.014257    -10.239303    -0.330314    0.754525    0.356893
6.976473    80.072281    108.425453    1.348715    -12.125091    -171.326355    -1.353844    -9.621423    1.079989    2.584367    3.509474    1.114762    2.547125    4.522004    -4.624404    2.578538    -12.991632    -4.435237    -0.502899    16.277290    0.475645    -56.144428    29.664909    -31.115814    3.037716    -6.532606    -12.456268    22.927979    -6.070265    0.658625    5.802552    17.626703    -6.016850    42.523029    41.335358    34.139984    -3.401320    -9.055407    24.181231    -15.395608    -7.788645    -4.080746    10.973901    -26.340265    -0.138289    1.879526    27.981064    0.130541    -11.058559    -11.487126    -14.190348    -0.798317    -0.369593    0.885494    -16.692553    -9.022804    -8.014084    2.956730    8.563501    -2.177150    13.174878    -6.118533    -10.251260    -0.329654    0.724247    0.356194
6.850733    80.000366    108.474625    1.591608    -12.139997    -171.264618    -1.277795    -9.452015    1.128478    2.793796    3.459103    1.149771    2.636754    4.308776    -4.655633    2.524154    -13.081332    -4.494316    -0.486836    16.289076    0.444306    -56.251663    29.186825    -30.958567    3.052790    -6.387586    -12.201585    23.334261    -5.937341    0.612656    5.818099    17.584961    -6.027240    42.604679    41.056400    33.799896    -3.503810    -9.121428    24.432404    -15.403661    -7.833959    -4.013021    11.025782    -26.925095    -0.237745    2.020674    28.877213    0.149853    -10.953289    -11.790807    -14.255536    -0.818538    -0.441817    0.908042    -16.641079    -9.308440    -8.155190    2.999750    9.004702    -2.009871    13.286901    -6.215718    -10.254769    -0.329628    0.684863    0.356185
6.714136    79.925720    108.525490    1.843043    -12.151365    -171.205139    -1.202080    -9.275909    1.172322    3.018295    3.413078    1.179904    2.741299    4.084851    -4.678584    2.464665    -13.194079    -4.547902    -0.456437    16.293303    0.401389    -56.343876    28.693956    -30.804661    3.059981    -6.215565    -11.926740    23.783655    -5.779044    0.566136    5.835931    17.542385    -6.037045    42.698681    40.743401    33.434311    -3.609510    -9.181666    24.687767    -15.411450    -7.873913    -3.932122    11.076481    -27.507433    -0.330100    2.170396    29.773623    0.155450    -10.842215    -12.094594    -14.314369    -0.838525    -0.515139    0.930339    -16.593521    -9.599100    -8.299904    3.043222    9.459117    -1.840708    13.411798    -6.302615    -10.248437    -0.329904    0.633456    0.356509
6.566156    79.849121    108.577919    2.101914    -12.159585    -171.148254    -1.127810    -9.093443    1.210768    3.257953    3.371695    1.204526    2.859961    3.850866    -4.692411    2.401597    -13.333747    -4.594790    -0.409319    16.286356    0.343789    -56.419453    28.184885    -30.650520    3.057915    -6.015328    -11.631372    24.279228    -5.594478    0.518367    5.853638    17.498259    -6.045431    42.808834    40.393581    33.042271    -3.716706    -9.234963    24.945019    -15.420547    -7.907834    -3.837687    11.125056    -28.083021    -0.411400    2.330338    30.662418    0.142758    -10.727665    -12.396812    -14.365931    -0.857707    -0.587859    0.951746    -16.551140    -9.893373    -8.449142    3.086298    9.924218    -1.670393    13.551392    -6.375174    -10.228997    -0.329620    0.567569    0.356234
6.405724    79.771317    108.631874    2.367975    -12.165304    -171.094147    -1.055733    -8.904689    1.243111    3.513405    3.334910    1.223054    2.991586    3.606370    -4.696425    2.337452    -13.503400    -4.633579    -0.343165    16.263943    0.268369    -56.476513    27.656845    -30.491135    3.045249    -5.785188    -11.314273    24.825106    -5.382345    0.468221    5.869146    17.451914    -6.051621    42.939453    40.002708    32.621349    -3.824241    -9.280212    25.202477    -15.432334    -7.934915    -3.729081    11.170974    -28.649141    -0.477393    2.502676    31.537680    0.106357    -10.611079    -12.696634    -14.409085    -0.875454    -0.657730    0.971563    -16.515007    -10.190129    -8.599360    3.128976    10.397481    -1.502793    13.708009    -6.428867    -10.194082    -0.328021    0.483620    0.354546
6.234009    79.694283    108.686661    2.636995    -12.169606    -171.043991    -0.987944    -8.712523    1.268500    3.781786    3.302572    1.234746    3.133515    3.354805    -4.689873    2.274449    -13.703320    -4.662673    -0.255918    16.222956    0.172956    -56.512447    27.114044    -30.324490    3.020908    -5.527344    -10.978917    25.416433    -5.145139    0.414643    5.879516    17.403214    -6.054490    43.093761    39.572292    32.174347    -3.929127    -9.315691    25.455217    -15.448573    -7.954011    -3.607994    11.213082    -29.195839    -0.522741    2.686941    32.381573    0.040923    -10.495181    -12.989340    -14.441607    -0.891125    -0.722766    0.989071    -16.487238    -10.484686    -8.745281    3.170955    10.870097    -1.343392    13.882096    -6.458103    -10.141925    -0.324292    0.378542    0.350566
6.050972    79.619530    108.741989    2.907205    -12.173846    -170.998489    -0.925539    -8.518164    1.286582    4.062105    3.273560    1.239375    3.283660    3.097440    -4.672290    2.214342    -13.933397    -4.680985    -0.145617    16.159401    0.055677    -56.525555    26.557858    -30.145971    2.984656    -5.243741    -10.626957    26.051025    -4.885091    0.356228    5.881574    17.352106    -6.053085    43.275928    39.101097    31.701334    -4.029638    -9.340291    25.700308    -15.470897    -7.964334    -3.475492    11.251257    -29.718439    -0.542946    2.883480    33.184383    -0.057479    -10.381015    -13.272890    -14.462553    -0.904072    -0.782046    1.003549    -16.469213    -10.775522    -8.883023    3.212109    11.338065    -1.195565    14.075164    -6.457892    -10.070591    -0.317308    0.248894    0.343076
